<svg width="30" height="30" viewBox="0 0 30 30" fill="none" xmlns="http://www.w3.org/2000/svg">
<path fill-rule="evenodd" clip-rule="evenodd" d="M15 30C18.9782 30 22.7936 28.4196 25.6066 25.6066C28.4196 22.7936 30 18.9782 30 15C30 11.0218 28.4196 7.20644 25.6066 4.3934C22.7936 1.58035 18.9782 0 15 0C11.0218 0 7.20644 1.58035 4.3934 4.3934C1.58035 7.20644 0 11.0218 0 15C0 18.9782 1.58035 22.7936 4.3934 25.6066C7.20644 28.4196 11.0218 30 15 30ZM21.7414 12.1929L15.7564 6.20357C15.5555 6.00271 15.283 5.88987 14.9989 5.88987C14.7148 5.88987 14.4424 6.00271 14.2414 6.20357L8.25857 12.1929C8.10847 12.3426 8.00616 12.5335 7.9646 12.7414C7.92303 12.9492 7.94407 13.1648 8.02505 13.3607C8.10604 13.5566 8.24333 13.7241 8.41955 13.842C8.59577 13.9599 8.80299 14.0228 9.015 14.0229H12.8571V21.9664C12.8571 22.5347 13.0829 23.0798 13.4848 23.4817C13.8866 23.8835 14.4317 24.1093 15 24.1093C15.5683 24.1093 16.1134 23.8835 16.5152 23.4817C16.9171 23.0798 17.1429 22.5347 17.1429 21.9664V14.0229H20.985C21.197 14.0228 21.4042 13.9599 21.5804 13.842C21.7567 13.7241 21.894 13.5566 21.9749 13.3607C22.0559 13.1648 22.077 12.9492 22.0354 12.7414C21.9938 12.5335 21.8915 12.3426 21.7414 12.1929Z" fill="#00193E"/>
</svg>
