<svg width="16" height="17" viewBox="0 0 16 17" fill="none" xmlns="http://www.w3.org/2000/svg">
<path d="M8 0.5C3.581 0.5 0 4.082 0 8.5C0 12.918 3.581 16.5 8 16.5C12.419 16.5 16 12.918 16 8.5C16 4.082 12.419 0.5 8 0.5ZM11.707 10.793C11.8945 10.9805 11.9998 11.2348 11.9998 11.5C11.9998 11.7652 11.8945 12.0195 11.707 12.207C11.5195 12.3945 11.2652 12.4998 11 12.4998C10.7348 12.4998 10.4805 12.3945 10.293 12.207L8 9.914L5.707 12.207C5.61435 12.3002 5.50419 12.3741 5.38285 12.4246C5.26152 12.4751 5.13141 12.501 5 12.501C4.86859 12.501 4.73848 12.4751 4.61715 12.4246C4.49581 12.3741 4.38565 12.3002 4.293 12.207C4.10553 12.0195 4.00021 11.7652 4.00021 11.5C4.00021 11.2348 4.10553 10.9805 4.293 10.793L6.586 8.5L4.293 6.207C4.10549 6.01949 4.00015 5.76518 4.00015 5.5C4.00015 5.23482 4.10549 4.98051 4.293 4.793C4.48051 4.60549 4.73482 4.50015 5 4.50015C5.26518 4.50015 5.51949 4.60549 5.707 4.793L8 7.086L10.293 4.793C10.4805 4.60549 10.7348 4.50015 11 4.50015C11.2652 4.50015 11.5195 4.60549 11.707 4.793C11.8945 4.98051 11.9998 5.23482 11.9998 5.5C11.9998 5.76518 11.8945 6.01949 11.707 6.207L9.414 8.5L11.707 10.793Z" fill="#9B9DA1"/>
</svg>
