<svg width="25" height="25" viewBox="0 0 25 25" fill="none" xmlns="http://www.w3.org/2000/svg">
<path d="M6.72636 11.3258L3.52436 6.78779C3.30152 6.39169 3.20968 5.93526 3.26197 5.4838C3.31426 5.03234 3.50801 4.60899 3.81549 4.27432C4.12297 3.93965 4.52844 3.71081 4.97386 3.62055C5.41928 3.53029 5.88184 3.58322 6.29536 3.77179L20.2544 10.4348C20.6261 10.6082 20.9406 10.884 21.161 11.23C21.3814 11.5759 21.4984 11.9776 21.4984 12.3878C21.4984 12.798 21.3814 13.1996 21.161 13.5456C20.9406 13.8915 20.6261 14.1674 20.2544 14.3408L6.09436 21.2058C5.67446 21.4095 5.19974 21.4714 4.74164 21.382C4.28355 21.2927 3.86687 21.057 3.55432 20.7104C3.24177 20.3637 3.05025 19.925 3.0086 19.4601C2.96694 18.9953 3.07741 18.5294 3.32336 18.1328L6.72636 13.3928C6.90002 13.076 6.99105 12.7206 6.99105 12.3593C6.99105 11.998 6.90002 11.6426 6.72636 11.3258Z" stroke="black" stroke-width="1.5" stroke-linecap="round" stroke-linejoin="round"/>
</svg>
