<svg width="44" height="44" viewBox="0 0 44 44" fill="none" xmlns="http://www.w3.org/2000/svg">
<path d="M40.491 10.5577C40.2468 9.5897 39.05 8.7999 37.829 8.7999H22.8382C21.6194 8.7999 19.9122 8.1003 19.0498 7.2445L17.7386 5.9509C16.8762 5.0951 15.1712 4.3999 13.9524 4.3999H6.7914C5.5704 4.3999 4.4616 5.3833 4.3274 6.5867L3.685 13.1999H40.9332L40.491 10.5577ZM42.7064 15.3999H1.2936C1.1159 15.4 0.940186 15.4373 0.777712 15.5092C0.615237 15.5812 0.469584 15.6863 0.350083 15.8178C0.230581 15.9493 0.139866 16.1043 0.0837483 16.2729C0.0276305 16.4415 0.00734736 16.62 0.024198 16.7969L2.0548 38.0687C2.09525 38.4877 2.29024 38.8766 2.60178 39.1597C2.91331 39.4427 3.31907 39.5997 3.74 39.5999H40.26C40.6809 39.5997 41.0867 39.4427 41.3982 39.1597C41.7098 38.8766 41.9047 38.4877 41.9452 38.0687L43.9758 16.7969C43.9926 16.62 43.9724 16.4415 43.9162 16.2729C43.8601 16.1043 43.7694 15.9493 43.6499 15.8178C43.5304 15.6863 43.3848 15.5812 43.2223 15.5092C43.0598 15.4373 42.8841 15.4 42.7064 15.3999Z" fill="#00193E"/>
</svg>
