<svg width="25" height="25" viewBox="0 0 25 25" fill="none" xmlns="http://www.w3.org/2000/svg">
<path d="M11.4583 1.66663C17.7868 1.66663 22.9167 6.36995 22.9167 12.1721C22.9167 17.9743 17.7868 22.6777 11.4583 22.6777C5.1299 22.6777 0 17.9743 0 12.1721C0 6.36995 5.1299 1.66663 11.4583 1.66663ZM11.4583 3.76773C9.02718 3.76773 6.6956 4.65319 4.97652 6.22932C3.25744 7.80546 2.29167 9.94315 2.29167 12.1721C2.29167 14.4011 3.25744 16.5388 4.97652 18.115C6.6956 19.6911 9.02718 20.5766 11.4583 20.5766C13.8895 20.5766 16.2211 19.6911 17.9401 18.115C19.6592 16.5388 20.625 14.4011 20.625 12.1721C20.625 9.94315 19.6592 7.80546 17.9401 6.22932C16.2211 4.65319 13.8895 3.76773 11.4583 3.76773ZM11.4583 16.3743C11.7622 16.3743 12.0537 16.485 12.2686 16.682C12.4834 16.8791 12.6042 17.1463 12.6042 17.4249C12.6042 17.7035 12.4834 17.9707 12.2686 18.1678C12.0537 18.3648 11.7622 18.4755 11.4583 18.4755C11.1544 18.4755 10.863 18.3648 10.6481 18.1678C10.4332 17.9707 10.3125 17.7035 10.3125 17.4249C10.3125 17.1463 10.4332 16.8791 10.6481 16.682C10.863 16.485 11.1544 16.3743 11.4583 16.3743ZM11.4583 6.39411C12.4234 6.39413 13.3584 6.70229 14.1027 7.26565C14.8469 7.829 15.354 8.61239 15.5367 9.48124C15.7195 10.3501 15.5665 11.2502 15.1041 12.0269C14.6418 12.8036 13.8988 13.4084 13.0029 13.7375C12.8702 13.7822 12.7506 13.8545 12.6534 13.9486C12.603 14.0012 12.595 14.0684 12.5961 14.1377L12.6042 14.2732C12.6038 14.541 12.492 14.7986 12.2915 14.9933C12.091 15.188 11.817 15.3051 11.5255 15.3208C11.2339 15.3365 10.9469 15.2496 10.7229 15.0777C10.4989 14.9058 10.355 14.6621 10.3205 14.3962L10.3125 14.2732V14.0106C10.3125 12.7993 11.3781 12.0723 12.1504 11.7876C12.4647 11.6726 12.7389 11.4812 12.9435 11.234C13.1482 10.9868 13.2755 10.6932 13.3118 10.3847C13.3482 10.0762 13.2922 9.76441 13.1498 9.48288C13.0075 9.20134 12.7842 8.96068 12.5039 8.78672C12.2237 8.61276 11.897 8.51208 11.5591 8.49549C11.2211 8.47891 10.8846 8.54704 10.5857 8.69258C10.2867 8.83812 10.0367 9.05556 9.86241 9.32155C9.68811 9.58755 9.59613 9.89205 9.59635 10.2024C9.59635 10.481 9.47563 10.7482 9.26075 10.9452C9.04586 11.1422 8.75441 11.2529 8.45052 11.2529C8.14663 11.2529 7.85518 11.1422 7.64029 10.9452C7.42541 10.7482 7.30469 10.481 7.30469 10.2024C7.30469 9.19235 7.7423 8.2237 8.52126 7.50952C9.30022 6.79533 10.3567 6.39411 11.4583 6.39411Z" fill="#9B9DA1"/>
</svg>
