<svg width="55" height="44" viewBox="0 0 55 44" fill="none" xmlns="http://www.w3.org/2000/svg">
<path d="M26.25 0C27.702 0 28.875 1.22891 28.875 2.75V8.25H38.7188C41.9836 8.25 44.625 11.0172 44.625 14.4375V37.8125C44.625 41.2328 41.9836 44 38.7188 44H13.7812C10.5164 44 7.875 41.2328 7.875 37.8125V14.4375C7.875 11.0172 10.5164 8.25 13.7812 8.25H23.625V2.75C23.625 1.22891 24.798 0 26.25 0ZM17.0625 33C16.3406 33 15.75 33.6187 15.75 34.375C15.75 35.1313 16.3406 35.75 17.0625 35.75H19.6875C20.4094 35.75 21 35.1313 21 34.375C21 33.6187 20.4094 33 19.6875 33H17.0625ZM24.9375 33C24.2156 33 23.625 33.6187 23.625 34.375C23.625 35.1313 24.2156 35.75 24.9375 35.75H27.5625C28.2844 35.75 28.875 35.1313 28.875 34.375C28.875 33.6187 28.2844 33 27.5625 33H24.9375ZM32.8125 33C32.0906 33 31.5 33.6187 31.5 34.375C31.5 35.1313 32.0906 35.75 32.8125 35.75H35.4375C36.1594 35.75 36.75 35.1313 36.75 34.375C36.75 33.6187 36.1594 33 35.4375 33H32.8125ZM21.6562 22C21.6562 21.0883 21.3105 20.214 20.6952 19.5693C20.0798 18.9247 19.2452 18.5625 18.375 18.5625C17.5048 18.5625 16.6702 18.9247 16.0548 19.5693C15.4395 20.214 15.0938 21.0883 15.0938 22C15.0938 22.9117 15.4395 23.786 16.0548 24.4307C16.6702 25.0753 17.5048 25.4375 18.375 25.4375C19.2452 25.4375 20.0798 25.0753 20.6952 24.4307C21.3105 23.786 21.6562 22.9117 21.6562 22ZM34.125 25.4375C34.9952 25.4375 35.8298 25.0753 36.4452 24.4307C37.0605 23.786 37.4062 22.9117 37.4062 22C37.4062 21.0883 37.0605 20.214 36.4452 19.5693C35.8298 18.9247 34.9952 18.5625 34.125 18.5625C33.2548 18.5625 32.4202 18.9247 31.8048 19.5693C31.1895 20.214 30.8438 21.0883 30.8438 22C30.8438 22.9117 31.1895 23.786 31.8048 24.4307C32.4202 25.0753 33.2548 25.4375 34.125 25.4375ZM3.9375 19.25H5.25V35.75H3.9375C1.76367 35.75 0 33.9023 0 31.625V23.375C0 21.0977 1.76367 19.25 3.9375 19.25ZM48.5625 19.25C50.7363 19.25 52.5 21.0977 52.5 23.375V31.625C52.5 33.9023 50.7363 35.75 48.5625 35.75H47.25V19.25H48.5625Z" fill="#00193E"/>
</svg>
