<svg width="19" height="21" viewBox="0 0 19 21" fill="none" xmlns="http://www.w3.org/2000/svg">
<path d="M1.16675 5.29167H17.8334M7.41675 9.45833V15.7083M11.5834 9.45833V15.7083M2.20841 5.29167L3.25008 17.7917C3.25008 18.3442 3.46957 18.8741 3.86028 19.2648C4.25098 19.6555 4.78088 19.875 5.33341 19.875H13.6667C14.2193 19.875 14.7492 19.6555 15.1399 19.2648C15.5306 18.8741 15.7501 18.3442 15.7501 17.7917L16.7917 5.29167M6.37508 5.29167V2.16667C6.37508 1.8904 6.48483 1.62545 6.68018 1.4301C6.87553 1.23475 7.14048 1.125 7.41675 1.125H11.5834C11.8597 1.125 12.1246 1.23475 12.32 1.4301C12.5153 1.62545 12.6251 1.8904 12.6251 2.16667V5.29167" stroke="#9B9DA1" stroke-width="2" stroke-linecap="round" stroke-linejoin="round"/>
</svg>
