<svg width="17" height="15" viewBox="0 0 17 15" fill="none" xmlns="http://www.w3.org/2000/svg">
<path d="M6 1.25L2.25 5L6 8.75M9 14H11.25C11.8409 14 12.4261 13.8836 12.9721 13.6575C13.518 13.4313 14.0141 13.0998 14.432 12.682C14.8498 12.2641 15.1813 11.768 15.4075 11.2221C15.6336 10.6761 15.75 10.0909 15.75 9.5C15.75 8.90905 15.6336 8.32389 15.4075 7.77792C15.1813 7.23196 14.8498 6.73588 14.432 6.31802C14.0141 5.90016 13.518 5.56869 12.9721 5.34254C12.4261 5.1164 11.8409 5 11.25 5H3" stroke="black" stroke-width="2"/>
</svg>
