<svg width="38" height="40" viewBox="0 0 38 40" fill="none" xmlns="http://www.w3.org/2000/svg">
<path d="M6.74711 31.8842C8.54156 30.5582 10.4458 29.5102 12.4598 28.7403C14.4724 27.969 16.6524 27.5833 19 27.5833C21.3476 27.5833 23.5276 27.969 25.5402 28.7403C27.5528 29.5117 29.457 30.5589 31.2529 31.882C32.6462 30.4014 33.7672 28.6537 34.6159 26.6387C35.4646 24.6208 35.8889 22.4079 35.8889 20C35.8889 15.1972 34.2443 11.1073 30.9552 7.73017C27.6661 4.35305 23.681 2.66522 19 2.66667C14.319 2.66811 10.3339 4.35667 7.04478 7.73233C3.75567 11.108 2.11111 15.1972 2.11111 20C2.11111 22.4079 2.53545 24.6208 3.38411 26.6387C4.23278 28.6551 5.35378 30.4029 6.74711 31.882M19 21.0833C17.2224 21.0833 15.7221 20.4564 14.4991 19.2027C13.2761 17.9489 12.6653 16.4091 12.6667 14.5833C12.6681 12.7576 13.2789 11.2178 14.4991 9.964C15.7193 8.71022 17.2196 8.08333 19 8.08333C20.7804 8.08333 22.2807 8.71022 23.5009 9.964C24.7211 11.2178 25.3319 12.7576 25.3333 14.5833C25.3347 16.4091 24.7239 17.9489 23.5009 19.2027C22.2779 20.4564 20.7776 21.0833 19 21.0833ZM19 39.5C16.3499 39.5 13.8693 38.9937 11.5583 37.9812C9.24737 36.9686 7.23619 35.5848 5.52478 33.8298C3.81337 32.0748 2.46508 30.0107 1.47989 27.6375C0.494707 25.2643 0.00141041 22.7184 3.003e-06 20C-0.0014044 17.2816 0.491892 14.7357 1.47989 12.3625C2.46789 9.98928 3.81619 7.92517 5.52478 6.17017C7.23619 4.41517 9.24737 3.03139 11.5583 2.01883C13.8693 1.00628 16.3499 0.5 19 0.5C21.6501 0.5 24.1307 1.00628 26.4417 2.01883C28.7526 3.03139 30.7638 4.41517 32.4752 6.17017C34.1866 7.92517 35.5349 9.98928 36.5201 12.3625C37.5053 14.7357 37.9986 17.2816 38 20C38.0014 22.7184 37.5081 25.2643 36.5201 27.6375C35.5321 30.0107 34.1838 32.0748 32.4752 33.8298C30.7638 35.5848 28.7526 36.9686 26.4417 37.9812C24.1307 38.9937 21.6501 39.5 19 39.5Z" fill="#9B9DA1"/>
</svg>
