<svg width="46" height="21" viewBox="0 0 46 21" fill="none" xmlns="http://www.w3.org/2000/svg">
<rect width="46" height="21" rx="7" fill="#9B9DA1"/>
<path d="M16.5449 7.146L13.9599 15H12.6619L10.0879 7.146H11.3749L12.8819 12.074C12.9406 12.25 12.9956 12.4407 13.0469 12.646C13.1056 12.844 13.1569 13.042 13.2009 13.24C13.2522 13.438 13.2889 13.625 13.3109 13.801C13.3402 13.625 13.3769 13.438 13.4209 13.24C13.4649 13.042 13.5162 12.844 13.5749 12.646C13.6336 12.4407 13.6886 12.2463 13.7399 12.063L15.2469 7.146H16.5449ZM19.9099 15H16.9289V14.318L17.8089 14.043V8.114L16.9289 7.828V7.146H19.9099V7.828L19.0299 8.114V14.043L19.9099 14.318V15ZM25.4517 15H21.2607V7.146H25.4517V8.158H22.4817V10.402H25.2757V11.403H22.4817V13.977H25.4517V15ZM35.7968 7.146L33.8718 15H32.5518L31.3088 10.149C31.2721 10.017 31.2354 9.87033 31.1988 9.709C31.1621 9.54767 31.1254 9.39 31.0888 9.236C31.0594 9.07467 31.0301 8.93167 31.0008 8.807C30.9788 8.68233 30.9641 8.587 30.9568 8.521C30.9494 8.587 30.9311 8.68233 30.9018 8.807C30.8798 8.93167 30.8541 9.07467 30.8248 9.236C30.7954 9.39 30.7624 9.55133 30.7258 9.72C30.6891 9.88133 30.6524 10.0353 30.6158 10.182L29.3948 15H28.0748L26.1498 7.146H27.3818L28.4378 11.788C28.4744 11.9493 28.5111 12.1143 28.5478 12.283C28.5844 12.4517 28.6174 12.6203 28.6468 12.789C28.6761 12.9577 28.7018 13.1227 28.7238 13.284C28.7531 13.438 28.7751 13.581 28.7898 13.713C28.8118 13.5737 28.8338 13.4233 28.8558 13.262C28.8851 13.1007 28.9144 12.9357 28.9438 12.767C28.9804 12.591 29.0171 12.4187 29.0538 12.25C29.0978 12.0813 29.1381 11.9237 29.1748 11.777L30.3518 7.146H31.5508L32.7718 11.81C32.8084 11.9567 32.8451 12.1143 32.8818 12.283C32.9184 12.4517 32.9551 12.624 32.9918 12.8C33.0284 12.9687 33.0578 13.1337 33.0798 13.295C33.1091 13.449 33.1348 13.5883 33.1568 13.713C33.1788 13.5297 33.2081 13.3317 33.2448 13.119C33.2888 12.899 33.3328 12.6753 33.3768 12.448C33.4281 12.2133 33.4758 11.9933 33.5198 11.788L34.5648 7.146H35.7968Z" fill="white"/>
</svg>
